# xmcd CD database file
#
# Track frame offsets:
#	150
#	18028
#	43523
#	64459
#	83477
#	100661
#	121774
#	131839
#	151392
#	184264
#
# Disc length: 2747 seconds
#
# Revision: 1
# Processed by: cddbd v1.5.2PL0 Copyright (c) Steve Scherf et al.
# Submitted via: CDex 1.51
#
DISCID=770ab90a
DTITLE=Koenji Hyakkei - Hundred Lights Of Koenji
DYEAR=1900
DGENRE=Progressive Rock
TTITLE0=Ioss
TTITLE1=Doi Doi
TTITLE2=Molavena
TTITLE3=Gepek
TTITLE4=Yagonahh
TTITLE5=Ozone Fall
TTITLE6=Zhess
TTITLE7=Zoltan
TTITLE8=Avedumma
TTITLE9=Sunna Zarioki
EXTD=
EXTT0=
EXTT1=
EXTT2=
EXTT3=
EXTT4=
EXTT5=
EXTT6=
EXTT7=
EXTT8=
EXTT9=
PLAYORDER=
